<svg width="48" height="48" viewBox="0 0 48 48" fill="none" xmlns="http://www.w3.org/2000/svg">
<path d="M23.9999 11.391H43.7206C43.9349 11.3908 44.1456 11.4471 44.3313 11.5542C44.517 11.6613 44.6711 11.8156 44.7782 12.0013C45.8667 13.8797 46.6959 15.8969 47.2433 17.9978C47.2872 18.1789 47.2911 18.3674 47.2545 18.5501C47.218 18.7328 47.1419 18.9054 47.0317 19.0556C46.9137 19.1991 46.7661 19.3156 46.599 19.397C46.432 19.4784 46.2494 19.5229 46.0636 19.5275H23.9999C22.8139 19.5296 21.6769 20.0017 20.8382 20.8405C19.9996 21.6793 19.5275 22.8163 19.5254 24.0025C19.5256 24.1629 19.4942 24.3217 19.4329 24.4698C19.3717 24.618 19.2818 24.7526 19.1684 24.866C19.0551 24.9794 18.9205 25.0693 18.7723 25.1305C18.6241 25.1918 18.4654 25.2232 18.305 25.223H12.6101C12.4498 25.2232 12.291 25.1918 12.1429 25.1305C11.9947 25.0693 11.8601 24.9794 11.7468 24.866C11.6334 24.7526 11.5435 24.618 11.4823 24.4698C11.421 24.3217 11.3896 24.1629 11.3898 24.0025C11.3927 20.6586 12.7222 17.4525 15.0864 15.088C17.4506 12.7236 20.6564 11.3939 23.9999 11.391Z" fill="#2A81A7"/>
<path d="M23.9999 36.614H4.27931C4.06495 36.6143 3.8543 36.558 3.66862 36.4508C3.48294 36.3437 3.32878 36.1895 3.22169 36.0038C2.13323 34.1253 1.30401 32.1082 0.75661 30.0072C0.680541 29.7176 0.715357 29.41 0.854237 29.1448C0.956887 28.9457 1.11188 28.7783 1.30254 28.6608C1.49319 28.5432 1.7123 28.4799 1.93627 28.4776H23.9999C25.186 28.4755 26.3229 28.0033 27.1616 27.1646C28.0003 26.3258 28.4724 25.1887 28.4745 24.0025C28.4743 23.8422 28.5057 23.6834 28.567 23.5352C28.6282 23.3871 28.7181 23.2524 28.8315 23.1391C28.9448 23.0257 29.0794 22.9358 29.2276 22.8745C29.3757 22.8133 29.5345 22.7819 29.6948 22.7821H35.3897C35.5501 22.7819 35.7088 22.8133 35.857 22.8745C36.0052 22.9358 36.1398 23.0257 36.2531 23.1391C36.3665 23.2524 36.4564 23.3871 36.5176 23.5352C36.5789 23.6834 36.6103 23.8422 36.6101 24.0025C36.6072 27.3464 35.2777 30.5525 32.9135 32.917C30.5492 35.2815 27.3435 36.6111 23.9999 36.614Z" fill="#2A81A7"/>
<path d="M1.22034 25.223C1.06002 25.2232 0.901237 25.1918 0.753082 25.1305C0.604928 25.0693 0.470314 24.9794 0.356952 24.866C0.243591 24.7526 0.15371 24.618 0.0924584 24.4698C0.0312067 24.3217 -0.00021214 24.1629 2.04427e-06 24.0025C-0.00190378 19.3846 1.32879 14.8642 3.83236 10.9839C6.33593 7.10369 9.90599 4.02847 14.114 2.12738C18.3221 0.226303 22.9893 -0.419855 27.5555 0.26647C32.1216 0.952795 36.3928 2.94244 39.8562 5.99658C39.999 6.12442 40.1107 6.28329 40.1826 6.46101C40.2546 6.63872 40.2848 6.83055 40.2711 7.02177C40.2414 7.32557 40.1003 7.6076 39.8749 7.81345C39.6496 8.0193 39.3559 8.13437 39.0508 8.13647H23.9999C19.7941 8.14187 15.7621 9.8152 12.7881 12.7895C9.81413 15.7638 8.14098 19.7963 8.13558 24.0025C8.13579 24.1629 8.10437 24.3217 8.04312 24.4698C7.98187 24.618 7.89199 24.7526 7.77862 24.866C7.66526 24.9794 7.53065 25.0693 7.38249 25.1305C7.23434 25.1918 7.07556 25.2232 6.91524 25.223H1.22034Z" fill="#2A81A7"/>
<path d="M47.9999 24.0025C48.0622 44.5134 23.4594 55.6217 8.14361 42.0082C7.9125 41.8029 7.76736 41.5179 7.73721 41.2103C7.70707 40.9026 7.79413 40.5949 7.981 40.3486C8.09437 40.1993 8.24077 40.0783 8.40873 39.995C8.5767 39.9117 8.76166 39.8684 8.94913 39.8686H23.9999C28.2058 39.8632 32.2378 38.1899 35.2118 35.2156C38.1858 32.2413 39.8589 28.2088 39.8643 24.0025C39.8641 23.8422 39.8955 23.6834 39.9568 23.5352C40.018 23.3871 40.1079 23.2524 40.2213 23.1391C40.3346 23.0257 40.4692 22.9358 40.6174 22.8745C40.7655 22.8133 40.9243 22.7819 41.0846 22.7821H46.7795C46.9399 22.7819 47.0986 22.8133 47.2468 22.8745C47.395 22.9358 47.5296 23.0257 47.6429 23.1391C47.7563 23.2524 47.8462 23.3871 47.9074 23.5352C47.9687 23.6834 48.0001 23.8422 47.9999 24.0025Z" fill="#2A81A7"/>
</svg>
